<?xml version="1.0" encoding="UTF-8"?>
<svg id="Ebene_1" data-name="Ebene 1" xmlns="http://www.w3.org/2000/svg" viewBox="0 0 50 46.09">
  <path d="m29.17,15.69s-.04.01-.05.03c-.02,0-.03,0-.05.02-1.32.89-2.53,1.91-3.63,3.06-.89.93-1.68,1.94-2.38,3.02-.04.07-.06.08-.11,0-.17-.24-.42-.34-.7-.34-.13,0-.14-.04-.13-.14.09-.8.09-1.61.07-2.41-.02-.77-.09-1.53-.2-2.29-.18-1.21-.44-2.4-.81-3.56-.04-.12-.06-.24-.13-.35-.02.06,0,.1.01.14.16.67.31,1.34.44,2.01.19.98.32,1.97.41,2.97.05.61.08,1.22.09,1.83,0,.58,0,1.17-.03,1.75,0,.07-.02.1-.09.13-.31.14-.53.36-.63.71-.09.32-.18.63-.23.96,0,.03,0,.07-.04.06-.05-1.07-.16-2.14-.32-3.21-.25-1.65-.63-3.27-1.15-4.86-.72-2.22-1.67-4.33-2.87-6.33-.98-1.65-2.1-3.2-3.36-4.65-.7-.81-1.43-1.58-2.29-2.23-.9-.67-1.83-1.28-2.89-1.67-.97-.36-1.95-.46-2.96-.14-.46.15-.85.38-1.1.8-.29.48-.3,1-.19,1.53.02.09.07.17.05.27-.13.59-.05,1.15.18,1.71.14.34.17.7.06,1.06-.05.17-.07.36-.08.54-.01.39.11.75.26,1.1.2.44.19.89-.02,1.32-.13.27-.19.55-.23.84-.03.28,0,.55.03.82.05.47-.11.88-.4,1.25-.24.31-.4.66-.46,1.05-.04.23-.05.46-.1.68-.09.45-.3.86-.55,1.24-.27.4-.37.85-.31,1.33.17,1.25.76,2.26,1.76,3.04.75.59,1.61.97,2.51,1.27.05.02.11.01.14.08-.03,0-.05.02-.07.03-.03-.04-.07-.02-.11-.03-.33-.03-.66,0-.99.02-.74.06-1.45.22-2.15.49-.81.31-1.47.79-1.95,1.52-.29.45-.39.91-.24,1.43.09.29.05.57-.11.84-.17.29-.29.6-.38.93-.07.26-.11.53-.08.81.02.21.05.42.03.64-.03.29-.14.54-.24.81-.17.44-.29.89-.14,1.37.13.44.12.88.06,1.33-.05.37-.19.7-.28,1.06-.11.44-.02.83.28,1.18.09.1.18.2.25.31.27.43.39.9.34,1.41-.02.23,0,.45.11.66.15.3.39.47.68.6.62.29,1.09.76,1.36,1.39.19.44.51.7.94.87.54.2,1.1.27,1.67.3.87.04,1.73-.04,2.58-.17,1.36-.22,2.68-.6,3.93-1.17,2.78-1.26,5.03-3.16,6.8-5.64.09-.13.19-.27.3-.42,0,.05.01.06,0,.08-.06.41-.08.82-.09,1.24-.02.87.01,1.74.12,2.61.12,1.01.32,2.01.62,2.98.86,2.78,2.35,5.16,4.52,7.11.53.48,1.11.9,1.77,1.19.53.23,1.05.3,1.6,0,.56-.29,1.17-.34,1.79-.19.22.05.45.11.68.07.36-.05.62-.25.82-.54.38-.53.89-.85,1.54-.92.19-.02.37-.1.53-.2.3-.2.45-.49.57-.81.26-.68.64-1.28,1.24-1.7.26-.18.45-.42.58-.7.09-.18.16-.38.22-.57.11-.4.32-.74.63-1.02.07-.06.13-.13.19-.2.33-.38.49-.85.62-1.32.05-.16.05-.33.13-.49.11-.23.3-.38.5-.53.22-.16.38-.38.48-.64.1-.28.12-.57.14-.86.03-.48-.04-.95-.22-1.39-.54-1.3-1.39-2.35-2.53-3.17-.02-.02-.05-.03-.05-.06.05-.01.08.01.12.03.42.17.85.31,1.28.43.73.19,1.47.3,2.23.21.84-.09,1.6-.41,2.28-.91.51-.38.88-.87.94-1.53.06-.61.25-1.17.61-1.68.27-.38.41-.82.42-1.3.02-.51.2-.95.59-1.29.4-.35.67-.78.8-1.29.02-.08.05-.17.08-.25.18-.42.49-.7.9-.88.45-.2.79-.53.99-.96.21-.45.54-.77.97-1,.38-.2.68-.5.91-.86.11-.17.22-.33.39-.44.09-.06.16-.14.23-.21.62-.61.75-1.41.33-2.17-.24-.44-.55-.82-.94-1.13-.68-.56-1.48-.86-2.32-1.07-1.07-.26-2.16-.36-3.27-.37-.38,0-.77-.02-1.15.03-.45.05-.89.13-1.34.2-1.72.29-3.41.72-5.06,1.29-2.14.73-4.17,1.68-6.1,2.84-2.45,1.48-4.66,3.27-6.63,5.36-.02.03-.04.07-.1.05.12-.18.22-.37.27-.58.09-.34.15-.68,0-1.01-.04-.09-.02-.14.03-.21.51-.71,1.04-1.4,1.61-2.06.77-.9,1.59-1.74,2.47-2.53.62-.56,1.26-1.08,1.9-1.61.01-.01.03-.02.04-.04.01,0,.02-.01.01-.03,0,0-.02,0-.03,0Z" style="fill: #fefefe; stroke-width: 0px;"/>
  <path d="m6.62,20.15s.04-.03.07-.03c.12.04.25.03.37.03-.02-.04-.06-.04-.09-.05-.47-.15-.93-.33-1.36-.56-.99-.52-1.71-1.27-2.06-2.35-.24-.75-.24-1.47.25-2.14.24-.33.4-.72.44-1.13.05-.55.25-1.03.59-1.47.22-.29.33-.64.28-1.01-.06-.5,0-.97.22-1.42.2-.41.21-.82.02-1.24-.2-.44-.22-.89-.09-1.34.1-.35.08-.7-.05-1.04-.17-.45-.19-.92-.09-1.39.01-.05.01-.09,0-.14-.02-.12-.05-.25-.06-.37-.09-.74.27-1.4.93-1.73.37-.18.77-.27,1.18-.29.67-.03,1.28.16,1.87.46.84.42,1.56,1,2.24,1.63.67.62,1.29,1.3,1.9,1.98.94,1.06,1.82,2.16,2.57,3.36,1.15,1.84,2.05,3.8,2.75,5.86.66,1.97,1.12,3.98,1.39,6.04.12.92.2,1.84.15,2.76-.05.86-.18,1.7-.46,2.51-.37,1.1-1.07,1.96-2,2.63-1.73,1.26-3.39,2.61-4.98,4.04-.48.43-.98.83-1.56,1.1-1.72.8-3.53,1.2-5.43,1.16-.48,0-.95-.08-1.39-.27-.29-.13-.52-.32-.64-.63-.23-.57-.62-.98-1.18-1.25-.53-.25-.69-.54-.64-1.13.04-.56-.1-1.05-.48-1.47-.18-.19-.25-.43-.26-.7,0-.24.07-.45.15-.67.21-.59.29-1.18.14-1.8-.06-.26-.04-.51.02-.76.05-.22.14-.42.23-.62.13-.29.18-.6.15-.92-.01-.15-.02-.29,0-.44.04-.42.19-.82.4-1.18.17-.3.22-.59.14-.93-.08-.32-.03-.63.13-.92.23-.42.52-.79.9-1.08.59-.45,1.26-.7,1.96-.88.46-.12.93-.17,1.41-.21Zm7.21-11.22s0,0,0,0c0,0,0,0,0,0,0,0,0,0,.01,0,0,.02,0,.04.02.05,0,.03.02.05.04.06.01.05.04.09.08.12,0,.01.01.02.02.04.92,1.37,1.71,2.8,2.43,4.28.83,1.69,1.51,3.44,1.91,5.28.3,1.38.48,2.76.44,4.17-.02.94-.13,1.87-.42,2.77-.6,1.84-1.78,3.16-3.56,3.92-1.07.46-1.99,1.09-2.59,2.12-.21.36-.47.68-.8.94-.66.51-1.42.77-2.25.87-.38.04-.76.03-1.16,0,.03.01.04.02.06.03.02,0,.05.01.08.02.7.12,1.4.09,2.09-.08.77-.19,1.44-.56,1.95-1.17.7-.85,1.57-1.48,2.54-1.99,1.12-.59,2.11-1.35,2.96-2.29.74-.82,1.25-1.75,1.43-2.86.09-.6.12-1.2.15-1.81.06-1.11,0-2.2-.18-3.29-.23-1.37-.64-2.69-1.15-3.99-.58-1.48-1.32-2.89-2.12-4.27-.54-.93-1.13-1.83-1.79-2.68-.01-.06-.06-.1-.1-.13,0-.03-.02-.05-.05-.05,0-.02,0-.04-.03-.05Z" style="fill: #169adb; stroke-width: 0px;"/>
  <path d="m6.62,20.15c-.47.04-.95.09-1.41.21-.71.18-1.38.44-1.96.88-.38.29-.67.66-.9,1.08-.16.29-.21.6-.13.92.09.33.03.63-.14.93-.21.36-.36.76-.4,1.18-.02.15,0,.3,0,.44.03.32-.02.62-.15.92-.09.2-.18.41-.23.62-.06.25-.08.5-.02.76.15.61.06,1.21-.14,1.8-.08.22-.16.43-.15.67,0,.26.08.5.26.7.39.42.53.91.48,1.47-.05.59.11.87.64,1.13.56.27.95.68,1.18,1.25.12.31.35.5.64.63.44.19.91.26,1.39.27,1.9.04,3.71-.36,5.43-1.16.58-.27,1.09-.68,1.56-1.1,1.59-1.43,3.25-2.78,4.98-4.04.93-.67,1.63-1.53,2-2.63.27-.81.41-1.66.46-2.51.05-.93-.03-1.85-.15-2.76-.26-2.06-.72-4.07-1.39-6.04-.69-2.05-1.6-4.01-2.75-5.86-.75-1.2-1.63-2.31-2.57-3.36-.61-.68-1.23-1.36-1.9-1.98-.68-.63-1.41-1.21-2.24-1.63-.59-.29-1.2-.49-1.87-.46-.41.02-.81.11-1.18.29-.67.33-1.02.99-.93,1.73.02.13.04.25.06.37,0,.05,0,.09,0,.14-.1.47-.08.94.09,1.39.13.34.15.68.05,1.04-.13.45-.1.9.09,1.34.19.41.18.82-.02,1.24-.22.45-.28.93-.22,1.42.05.37-.06.72-.28,1.01-.34.44-.53.92-.59,1.47-.04.41-.2.8-.44,1.13-.49.67-.5,1.39-.25,2.14.35,1.08,1.07,1.84,2.06,2.35.44.23.89.41,1.36.56.03,0,.07,0,.09.05-.13,0-.25.01-.37-.03-.03-.06-.09-.06-.14-.08-.9-.3-1.76-.68-2.51-1.27-.99-.78-1.58-1.79-1.76-3.04-.07-.48.03-.93.31-1.33.26-.38.46-.79.55-1.24.05-.22.06-.46.1-.68.07-.39.22-.74.46-1.05.29-.37.44-.78.4-1.25-.03-.27-.07-.54-.03-.82.03-.29.1-.57.23-.84.21-.44.22-.88.02-1.32-.16-.35-.28-.71-.26-1.1,0-.18.03-.37.08-.54.1-.36.08-.72-.06-1.06-.23-.56-.31-1.12-.18-1.71.02-.09-.03-.18-.05-.27-.11-.53-.1-1.05.19-1.53.25-.42.65-.66,1.1-.8,1-.32,1.99-.22,2.96.14,1.06.4,1.99,1,2.89,1.67.86.65,1.59,1.42,2.29,2.23,1.26,1.45,2.38,3,3.36,4.65,1.19,2,2.15,4.11,2.87,6.33.52,1.59.9,3.21,1.15,4.86.16,1.06.27,2.13.32,3.21.05,0,.04-.04.04-.06.05-.33.14-.64.23-.96.1-.34.32-.56.63-.71.07-.03.09-.07.09-.13.02-.58.03-1.17.03-1.75,0-.61-.04-1.22-.09-1.83-.08-1-.22-1.99-.41-2.97-.13-.67-.28-1.34-.44-2.01,0-.04-.03-.08-.01-.14.07.12.09.24.13.35.37,1.17.64,2.35.81,3.56.11.76.18,1.52.2,2.29.02.81.02,1.61-.07,2.41-.01.11,0,.14.13.14.28,0,.53.1.7.34.05.07.07.06.11,0,.7-1.08,1.49-2.09,2.38-3.02,1.1-1.15,2.31-2.17,3.63-3.06.01,0,.03-.01.05-.02,0,0,.02.01.02.02-.64.53-1.29,1.05-1.9,1.61-.88.79-1.7,1.64-2.47,2.53-.57.66-1.1,1.35-1.61,2.06-.05.07-.06.12-.03.21.14.34.08.68,0,1.01-.06.21-.16.4-.27.58.06.02.08-.03.1-.05,1.97-2.09,4.18-3.88,6.63-5.36,1.93-1.17,3.96-2.12,6.1-2.84,1.65-.56,3.34-1,5.06-1.29.44-.07.89-.15,1.34-.2.38-.04.77-.03,1.15-.03,1.1,0,2.19.11,3.27.37.84.21,1.64.51,2.32,1.07.38.31.7.69.94,1.13.42.76.29,1.56-.33,2.17-.07.07-.15.15-.23.21-.17.11-.28.27-.39.44-.23.36-.53.66-.91.86-.43.23-.76.55-.97,1-.21.44-.55.76-.99.96-.41.18-.72.46-.9.88-.03.08-.06.16-.08.25-.14.51-.41.94-.8,1.29-.39.34-.57.78-.59,1.29-.02.47-.15.91-.42,1.3-.36.51-.56,1.07-.61,1.68-.06.66-.42,1.15-.94,1.53-.68.51-1.44.82-2.28.91-.76.08-1.5-.02-2.23-.21-.44-.11-.86-.26-1.28-.43-.03-.01-.07-.04-.12-.03,0,.03.03.04.05.06,1.13.83,1.99,1.87,2.53,3.17.18.44.25.91.22,1.39-.02.29-.04.58-.14.86-.1.26-.26.47-.48.64-.2.15-.39.3-.5.53-.07.16-.08.33-.13.49-.13.48-.29.94-.62,1.32-.06.07-.12.14-.19.2-.31.28-.52.62-.63,1.02-.05.2-.13.39-.22.57-.14.28-.32.52-.58.7-.61.42-.99,1.02-1.24,1.7-.12.32-.27.61-.57.81-.16.11-.34.18-.53.2-.65.08-1.16.39-1.54.92-.21.29-.47.49-.82.54-.23.03-.46-.02-.68-.07-.62-.15-1.23-.1-1.79.19-.55.29-1.07.23-1.6,0-.66-.29-1.24-.71-1.77-1.19-2.17-1.94-3.66-4.33-4.52-7.11-.3-.97-.5-1.97-.62-2.98-.1-.87-.14-1.74-.12-2.61.01-.41.03-.83.09-1.24,0-.01,0-.03,0-.08-.11.16-.2.29-.3.42-1.77,2.48-4.03,4.38-6.8,5.64-1.26.57-2.57.95-3.93,1.17-.86.14-1.72.22-2.58.17-.57-.03-1.13-.1-1.67-.3-.43-.16-.75-.43-.94-.87-.27-.63-.73-1.09-1.36-1.39-.28-.13-.53-.31-.68-.6-.1-.21-.13-.43-.11-.66.05-.51-.07-.98-.34-1.41-.07-.11-.16-.21-.25-.31-.3-.34-.39-.74-.28-1.18.09-.35.23-.69.28-1.06.06-.45.07-.89-.06-1.33-.15-.48-.03-.93.14-1.37.1-.26.22-.52.24-.81.02-.22,0-.43-.03-.64-.03-.28,0-.55.08-.81.09-.32.21-.64.38-.93.16-.27.19-.55.11-.84-.15-.52-.05-.98.24-1.43.47-.74,1.14-1.21,1.95-1.52.69-.27,1.41-.43,2.15-.49.33-.03.66-.06.99-.02.04,0,.08-.01.11.03Zm28.6,10.23c.06-.01.1.02.15.04.49.21.99.37,1.51.47,1.16.23,2.23.04,3.2-.65.52-.38.87-.86.92-1.52.05-.53.23-1,.53-1.44.22-.32.35-.69.36-1.09.02-.52.2-.95.59-1.3.31-.27.51-.63.61-1.03.12-.48.39-.83.84-1.04.42-.19.71-.52.9-.93.16-.34.39-.59.71-.77.31-.17.59-.4.78-.7.15-.25.35-.45.55-.65.62-.58.74-1.35.34-2.1-.35-.65-.87-1.13-1.54-1.43-.8-.37-1.65-.5-2.52-.55-.84-.05-1.68,0-2.52.07-1.62.15-3.22.41-4.78.87-.55.17-1.12.32-1.64.56-1.06.5-2.1,1.05-3.15,1.55-1.37.65-2.68,1.4-3.9,2.29-1.16.84-2.25,1.76-3.27,2.76-.66.65-1.28,1.32-1.79,2.09-.43.65-.8,1.33-1.03,2.08-.29.97-.27,1.95-.03,2.92.51,2.08.89,4.18,1.18,6.3.11.78.29,1.54.66,2.25.69,1.32,1.57,2.5,2.65,3.52.45.42.93.8,1.5,1.05.38.17.77.25,1.17.04.55-.29,1.12-.36,1.72-.19.2.06.4.08.61.03.26-.07.44-.23.59-.44.31-.46.74-.76,1.3-.83.4-.05.68-.28.85-.63.06-.12.11-.26.16-.39.23-.58.57-1.09,1.09-1.46.13-.09.24-.22.32-.36.15-.24.25-.51.33-.78.1-.35.28-.64.54-.89.12-.11.23-.24.31-.38.2-.33.33-.68.39-1.05.06-.34.22-.61.5-.81.24-.17.39-.41.47-.69.1-.33.11-.68.1-1.02-.02-.66-.28-1.25-.6-1.82-.43-.76-.99-1.42-1.67-1.97h0Z" style="fill: #040406; stroke-width: 0px;"/>
  <path d="m29.19,15.71s-.03.02-.04.04l-.02-.02s.03-.03.05-.03c0,0,.01.01.02.02Z" style="fill: #040406; stroke-width: 0px;"/>
  <path d="m29.17,15.69s.03,0,.03,0c.01.01,0,.02-.01.03,0,0-.01-.01-.02-.02Z" style="fill: #040406; stroke-width: 0px;"/>
  <path d="m14.02,9.17c.65.86,1.25,1.75,1.79,2.68.8,1.38,1.54,2.78,2.12,4.27.5,1.29.91,2.61,1.15,3.99.19,1.09.24,2.19.18,3.29-.03.6-.06,1.21-.15,1.81-.17,1.1-.68,2.04-1.43,2.86-.85.94-1.85,1.7-2.96,2.29-.97.51-1.84,1.14-2.54,1.99-.51.62-1.18.98-1.95,1.17-.69.17-1.39.2-2.09.08-.03,0-.05,0-.08-.02-.02,0-.03-.01-.06-.03.4.03.78.04,1.16,0,.83-.09,1.59-.36,2.25-.87.33-.26.59-.58.8-.94.61-1.02,1.52-1.66,2.59-2.12,1.78-.76,2.96-2.08,3.56-3.92.29-.9.4-1.83.42-2.77.03-1.41-.14-2.8-.44-4.17-.4-1.85-1.09-3.59-1.91-5.28-.72-1.48-1.52-2.91-2.43-4.28,0-.01-.01-.02-.02-.04.01,0,.02,0,.04,0Z" style="fill: #f8fbfd; stroke-width: 0px;"/>
  <path d="m14.02,9.17s-.02,0-.04,0c-.04-.03-.07-.07-.08-.12,0,0,.01-.01.02-.02.04.04.09.08.1.13Z" style="fill: #8dcdec; stroke-width: 0px;"/>
  <path d="m13.86,8.98s.05.02.05.05c0,0-.01.01-.02.02-.02-.01-.04-.03-.04-.06h0Z" style="fill: #8dcdec; stroke-width: 0px;"/>
  <path d="m13.86,8.99s-.03-.03-.02-.05h0s.03.03.03.05c0,0,0,0,0,0Z" style="fill: #8dcdec; stroke-width: 0px;"/>
  <path d="m13.84,8.93s0,0-.01,0c0,0,0,0,0,0,0,0,0,0,0,0,0,0,0,0,0,0Z" style="fill: #8dcdec; stroke-width: 0px;"/>
  <path d="m35.22,30.38c.68.55,1.24,1.2,1.67,1.97.32.57.58,1.15.6,1.82,0,.34,0,.69-.1,1.02-.08.28-.23.52-.47.69-.28.2-.44.46-.5.81-.06.37-.19.72-.39,1.05-.09.14-.19.27-.31.38-.26.25-.45.54-.54.89-.08.27-.17.54-.33.78-.09.14-.19.26-.32.36-.52.37-.85.87-1.09,1.46-.05.13-.1.26-.16.39-.18.36-.45.58-.85.63-.56.07-.99.37-1.3.83-.15.22-.33.38-.59.44-.21.05-.41.03-.61-.03-.6-.17-1.17-.1-1.72.19-.4.21-.79.13-1.17-.04-.57-.25-1.05-.63-1.5-1.05-1.09-1.02-1.97-2.2-2.65-3.52-.36-.7-.55-1.47-.66-2.25-.29-2.12-.68-4.22-1.18-6.3-.24-.97-.26-1.95.03-2.92.22-.75.6-1.43,1.03-2.08.51-.77,1.13-1.45,1.79-2.09,1.02-1,2.11-1.92,3.27-2.76,1.23-.89,2.53-1.64,3.9-2.29,1.06-.5,2.1-1.05,3.15-1.55.52-.25,1.09-.4,1.64-.56,1.56-.47,3.16-.72,4.78-.87.84-.08,1.68-.12,2.52-.07.87.05,1.72.18,2.52.55.67.31,1.19.78,1.54,1.43.4.75.27,1.52-.34,2.1-.21.2-.4.4-.55.65-.19.3-.47.53-.78.7-.32.18-.56.43-.71.77-.19.41-.48.73-.9.93-.45.21-.72.56-.84,1.04-.1.4-.3.76-.61,1.03-.39.35-.57.78-.59,1.3-.02.4-.14.77-.36,1.09-.3.44-.48.92-.53,1.44-.06.66-.4,1.15-.92,1.52-.97.7-2.04.89-3.2.65-.52-.1-1.02-.27-1.51-.47-.05-.02-.09-.05-.15-.04,0-.01,0-.02-.01-.01,0,0,.01,0,.02.01Zm-10.27,9.7s0,0,0,.01c0,0,0,0,0,0,0,0,0,0-.01,0-.05-.07-.12-.12-.19-.16-.25-.23-.5-.47-.71-.75-.77-1.01-1.14-2.11-.84-3.39.1-.4.15-.81.13-1.23-.03-.7-.22-1.37-.5-2-.5-1.13-.59-2.31-.42-3.52.13-.91.51-1.74.99-2.51.66-1.04,1.49-1.92,2.42-2.71,1.63-1.4,3.44-2.5,5.43-3.32,2.04-.85,4.13-1.52,6.29-1.98.13-.02.26-.04.39-.08.03,0,.08.02.1-.03-.04-.03-.07,0-.1.01-.13,0-.26.01-.39.05-1.37.21-2.72.53-4.04.94-1.32.41-2.63.85-3.88,1.46-1.19.58-2.34,1.21-3.4,2.01-1.21.91-2.23,2.02-3.17,3.2-.78.98-1.15,2.11-1.19,3.35-.04,1.29.16,2.55.56,3.78.33,1.01.48,2.03.39,3.09-.04.48.02.96.19,1.41.34.92.94,1.64,1.71,2.23.07.06.14.14.24.15Z" style="fill: #169adb; stroke-width: 0px;"/>
  <path d="m24.71,39.94c-.77-.59-1.37-1.31-1.71-2.23-.17-.46-.23-.93-.19-1.41.09-1.06-.06-2.08-.39-3.09-.4-1.23-.6-2.49-.56-3.78.04-1.24.4-2.37,1.19-3.35.94-1.18,1.96-2.29,3.17-3.2,1.06-.8,2.21-1.43,3.4-2.01,1.25-.61,2.56-1.05,3.88-1.46,1.32-.41,2.67-.73,4.04-.94,0,.02,0,.03,0,.05-2.16.46-4.25,1.14-6.29,1.98-1.98.82-3.8,1.92-5.43,3.32-.92.8-1.76,1.68-2.42,2.71-.49.77-.86,1.6-.99,2.51-.17,1.21-.08,2.39.42,3.52.28.64.47,1.3.5,2,.02.42-.03.83-.13,1.23-.3,1.28.07,2.38.84,3.39.21.27.45.52.71.75-.02,0-.03,0-.05.01Z" style="fill: #f8fbfd; stroke-width: 0px;"/>
  <path d="m37.55,18.51s0-.03,0-.05c.13-.04.26-.04.39-.05,0,0,0,.01,0,.02-.13.04-.26.07-.39.08Z" style="fill: #b5def2; stroke-width: 0px;"/>
  <path d="m24.71,39.94s.03,0,.05-.01c.07.04.14.09.19.16h0c-.1-.01-.17-.09-.24-.15Z" style="fill: #9fd5ef; stroke-width: 0px;"/>
  <path d="m37.94,18.42s0-.01,0-.02c.03-.01.06-.04.1-.01-.02.05-.07.02-.1.03Z" style="fill: #64bbe6; stroke-width: 0px;"/>
  <path d="m35.22,30.38s-.01,0-.02-.01c.02,0,.02,0,.01.01,0,0,0,0,0,0Z" style="fill: #040406; stroke-width: 0px;"/>
  <path d="m24.95,40.09s0,0,.01,0c0,0,0,0,0,0,0,0,0,0,0-.01,0,0,0,0,0,0Z" style="fill: #9fd5ef; stroke-width: 0px;"/>
</svg>